<svg width="30" height="27" viewBox="0 0 30 27" fill="none" xmlns="http://www.w3.org/2000/svg">
<path d="M28.741 6.20821C28.489 5.77161 28.1282 5.40778 27.6937 5.15219C27.2592 4.89661 26.7659 4.75799 26.2618 4.74988H7.59518L6.74935 1.45405C6.66389 1.13589 6.47323 0.856047 6.20842 0.660088C5.94361 0.464128 5.62025 0.363601 5.29102 0.374879H2.37435C1.98757 0.374879 1.61664 0.528524 1.34315 0.802015C1.06966 1.07551 0.916016 1.44644 0.916016 1.83321C0.916016 2.21999 1.06966 2.59092 1.34315 2.86441C1.61664 3.1379 1.98757 3.29155 2.37435 3.29155H4.18268L8.20768 18.254C8.29314 18.5722 8.4838 18.852 8.74861 19.048C9.01342 19.244 9.33678 19.3445 9.66602 19.3332H22.791C23.0603 19.3324 23.3241 19.257 23.5532 19.1154C23.7823 18.9739 23.9677 18.7716 24.0889 18.5311L28.8723 8.96446C29.0796 8.5299 29.1761 8.05077 29.1532 7.56983C29.1303 7.08889 28.9887 6.62111 28.741 6.20821Z" fill="white"/>
<path d="M8.9375 26.625C10.1456 26.625 11.125 25.6456 11.125 24.4375C11.125 23.2294 10.1456 22.25 8.9375 22.25C7.72938 22.25 6.75 23.2294 6.75 24.4375C6.75 25.6456 7.72938 26.625 8.9375 26.625Z" fill="white"/>
<path d="M23.5195 26.625C24.7277 26.625 25.707 25.6456 25.707 24.4375C25.707 23.2294 24.7277 22.25 23.5195 22.25C22.3114 22.25 21.332 23.2294 21.332 24.4375C21.332 25.6456 22.3114 26.625 23.5195 26.625Z" fill="white"/>
</svg>
