<svg width="23" height="23" viewBox="0 0 23 23" fill="none" xmlns="http://www.w3.org/2000/svg">
<path d="M11.4318 0.0888672C8.32951 0.0888672 7.9394 0.103157 6.72048 0.157458C5.50156 0.214617 4.67133 0.4061 3.94398 0.689038C3.18104 0.976004 2.48998 1.42614 1.91912 2.00798C1.33763 2.57914 0.887548 3.27011 0.60017 4.03284C0.317233 4.75876 0.124321 5.59043 0.0685909 6.80506C0.0142898 8.02684 0 8.41552 0 11.5221C0 14.6259 0.0142898 15.0145 0.0685909 16.2335C0.12575 17.4509 0.317233 18.2812 0.60017 19.0085C0.893111 19.7602 1.28322 20.3975 1.91912 21.0334C2.55358 21.6693 3.19091 22.0608 3.94255 22.3523C4.67133 22.6353 5.50013 22.8282 6.71762 22.8839C7.93797 22.9382 8.32665 22.9525 11.4318 22.9525C14.537 22.9525 14.9242 22.9382 16.1446 22.8839C17.3606 22.8268 18.1937 22.6353 18.9211 22.3523C19.6835 22.0652 20.3741 21.6151 20.9445 21.0334C21.5804 20.3975 21.9705 19.7602 22.2635 19.0085C22.545 18.2812 22.7379 17.4509 22.795 16.2335C22.8493 15.0145 22.8636 14.6259 22.8636 11.5207C22.8636 8.41552 22.8493 8.02684 22.795 6.80649C22.7379 5.59043 22.545 4.75876 22.2635 4.03284C21.9761 3.27009 21.526 2.57911 20.9445 2.00798C20.3738 1.42593 19.6827 0.975755 18.9197 0.689038C18.1909 0.4061 17.3592 0.213188 16.1432 0.157458C14.9228 0.103157 14.5356 0.0888672 11.429 0.0888672H11.4332H11.4318ZM10.4072 2.14945H11.4332C14.4855 2.14945 14.8471 2.15946 16.0517 2.21519C17.1663 2.2652 17.7722 2.4524 18.1752 2.60815C18.7082 2.81536 19.0897 3.064 19.4898 3.46411C19.8899 3.86423 20.1371 4.24433 20.3443 4.77877C20.5015 5.18031 20.6873 5.7862 20.7373 6.9008C20.793 8.10543 20.8045 8.46696 20.8045 11.5178C20.8045 14.5687 20.793 14.9317 20.7373 16.1363C20.6873 17.2509 20.5001 17.8553 20.3443 18.2583C20.1611 18.7547 19.8685 19.2035 19.4884 19.5715C19.0883 19.9717 18.7082 20.2189 18.1737 20.4261C17.7736 20.5833 17.1677 20.769 16.0517 20.8205C14.8471 20.8748 14.4855 20.8876 11.4332 20.8876C8.38095 20.8876 8.01799 20.8748 6.81336 20.8205C5.69876 20.769 5.0943 20.5833 4.69133 20.4261C4.19476 20.243 3.74553 19.951 3.37667 19.5715C2.99621 19.2029 2.70323 18.7537 2.51929 18.2569C2.36353 17.8553 2.17633 17.2495 2.12632 16.1349C2.07202 14.9302 2.06059 14.5687 2.06059 11.515C2.06059 8.46267 2.07202 8.10257 2.12632 6.89794C2.17776 5.78334 2.36353 5.17746 2.52072 4.77448C2.72792 4.24148 2.97656 3.85994 3.37667 3.45982C3.77679 3.05971 4.15689 2.8125 4.69133 2.6053C5.0943 2.44811 5.69876 2.26234 6.81336 2.2109C7.86795 2.16231 8.27664 2.14802 10.4072 2.14659V2.14945ZM17.535 4.04713C17.3548 4.04713 17.1764 4.08262 17.01 4.15156C16.8436 4.2205 16.6923 4.32155 16.565 4.44893C16.4376 4.57632 16.3365 4.72754 16.2676 4.89398C16.1986 5.06042 16.1632 5.2388 16.1632 5.41895C16.1632 5.5991 16.1986 5.77749 16.2676 5.94392C16.3365 6.11036 16.4376 6.26159 16.565 6.38897C16.6923 6.51636 16.8436 6.61741 17.01 6.68635C17.1764 6.75529 17.3548 6.79077 17.535 6.79077C17.8988 6.79077 18.2477 6.64624 18.505 6.38897C18.7623 6.13171 18.9068 5.78278 18.9068 5.41895C18.9068 5.05512 18.7623 4.7062 18.505 4.44893C18.2477 4.19166 17.8988 4.04713 17.535 4.04713ZM11.4332 5.65045C10.6546 5.6383 9.88123 5.78118 9.15828 6.07077C8.43534 6.36036 7.77723 6.79087 7.22227 7.33724C6.6673 7.88362 6.22657 8.53493 5.92574 9.25327C5.62491 9.97161 5.46998 10.7426 5.46998 11.5214C5.46998 12.3002 5.62491 13.0712 5.92574 13.7895C6.22657 14.5079 6.6673 15.1592 7.22227 15.7056C7.77723 16.2519 8.43534 16.6824 9.15828 16.972C9.88123 17.2616 10.6546 17.4045 11.4332 17.3924C12.9745 17.3683 14.4444 16.7392 15.5258 15.6408C16.6072 14.5424 17.2133 13.0628 17.2133 11.5214C17.2133 9.98 16.6072 8.50042 15.5258 7.40202C14.4444 6.30361 12.9745 5.67449 11.4332 5.65045ZM11.4332 7.7096C12.444 7.7096 13.4134 8.11113 14.1281 8.82584C14.8428 9.54056 15.2443 10.5099 15.2443 11.5207C15.2443 12.5314 14.8428 13.5008 14.1281 14.2155C13.4134 14.9302 12.444 15.3318 11.4332 15.3318C10.4225 15.3318 9.45312 14.9302 8.7384 14.2155C8.02369 13.5008 7.62216 12.5314 7.62216 11.5207C7.62216 10.5099 8.02369 9.54056 8.7384 8.82584C9.45312 8.11113 10.4225 7.7096 11.4332 7.7096Z" fill="#F9A43F"/>
</svg>
