<svg width="30" height="29" viewBox="0 0 30 29" fill="none" xmlns="http://www.w3.org/2000/svg">
<path d="M15 0.695312C12.9545 0.695312 11.3565 1.43942 10.206 2.92765C9.0554 4.41587 8.48011 6.31827 8.48011 8.63485C8.46591 11.513 9.40341 13.7945 11.2926 15.4793C11.5341 15.7039 11.6193 15.9917 11.5483 16.3427L11.0582 17.3536C10.902 17.6906 10.6712 17.9538 10.3658 18.1433C10.0604 18.3329 9.41761 18.6031 8.4375 18.9541C8.39489 18.9682 7.49645 19.256 5.74219 19.8176C3.98793 20.3792 3.05398 20.6881 2.94034 20.7442C1.74716 21.2356 0.965909 21.7481 0.596591 22.2816C0.198864 23.1661 0 25.4055 0 28.9997H30C30 25.4055 29.8011 23.1661 29.4034 22.2816C29.0341 21.7481 28.2528 21.2356 27.0597 20.7442C26.946 20.6881 26.0121 20.3792 24.2578 19.8176C22.5036 19.256 21.6051 18.9682 21.5625 18.9541C20.5824 18.6031 19.9396 18.3329 19.6342 18.1433C19.3288 17.9538 19.098 17.6906 18.9418 17.3536L18.4517 16.3427C18.3807 15.9917 18.4659 15.7039 18.7074 15.4793C20.5966 13.7945 21.5341 11.513 21.5199 8.63485C21.5199 6.31827 20.9446 4.41587 19.794 2.92765C18.6435 1.43942 17.0455 0.695312 15 0.695312Z" fill="white"/>
</svg>
