<svg width="25" height="24" viewBox="0 0 25 24" fill="none" xmlns="http://www.w3.org/2000/svg">
<path d="M19.6038 9.1421C19.6976 8.84265 19.6038 8.62305 19.1607 8.62305H17.6928C17.3192 8.62305 17.1486 8.81302 17.0548 9.02168C17.0548 9.02168 16.3085 10.7727 15.2509 11.908C14.9095 12.2384 14.7535 12.3427 14.5674 12.3427C14.4744 12.3427 14.3392 12.2384 14.3392 11.9389V9.1421C14.3392 8.78276 14.2314 8.62305 13.9201 8.62305H11.6134C11.3805 8.62305 11.2399 8.7892 11.2399 8.94762C11.2399 9.28764 11.7687 9.36621 11.823 10.3245V12.4033C11.823 12.8586 11.738 12.9416 11.5505 12.9416C11.0532 12.9416 9.84294 11.1842 9.12469 9.17237C8.98479 8.78147 8.84355 8.62369 8.4687 8.62369H7.00142C6.58172 8.62369 6.49805 8.81367 6.49805 9.02232C6.49805 9.39712 6.9954 11.2518 8.81477 13.7048C10.0277 15.3798 11.7353 16.2878 13.2909 16.2878C14.2234 16.2878 14.3385 16.0862 14.3385 15.7385V14.4724C14.3385 14.0693 14.4275 13.9881 14.7227 13.9881C14.9396 13.9881 15.3131 14.0937 16.184 14.9007C17.1787 15.8576 17.3433 16.2872 17.9023 16.2872H19.3696C19.7886 16.2872 19.9981 16.0856 19.8776 15.6876C19.7457 15.2916 19.2705 14.7152 18.6399 14.0332C18.2972 13.6442 17.7851 13.2256 17.6292 13.0163C17.4116 12.7465 17.4745 12.6274 17.6292 12.3878C17.6298 12.3885 19.4178 9.96576 19.6038 9.1421Z" fill="#F9A43F"/>
<rect x="2.83789" y="2.08887" width="20.8636" height="20.8636" rx="6" stroke="#F9A43F" stroke-width="2"/>
</svg>
