<svg width="11" height="20" viewBox="0 0 11 20" fill="none" xmlns="http://www.w3.org/2000/svg">
<path d="M8.59253 19.9171C8.38089 19.9179 8.17177 19.8711 7.98055 19.7804C7.78933 19.6897 7.62086 19.5573 7.48753 19.393L0.645029 10.893C0.436663 10.6395 0.322754 10.3215 0.322754 9.99339C0.322754 9.66525 0.436663 9.34729 0.645029 9.09381L7.72836 0.593805C7.96882 0.304498 8.31437 0.122564 8.68897 0.0880259C9.06357 0.0534879 9.43655 0.169176 9.72586 0.409639C10.0152 0.650102 10.1971 0.995643 10.2316 1.37025C10.2662 1.74485 10.1505 2.11783 9.91003 2.40714L3.57753 10.0005L9.69753 17.5938C9.87076 17.8018 9.9808 18.055 10.0146 18.3235C10.0485 18.592 10.0047 18.8646 9.88842 19.109C9.77217 19.3535 9.58835 19.5595 9.35869 19.7027C9.12903 19.8459 8.86316 19.9203 8.59253 19.9171Z" fill="#2A2A2A"/>
</svg>
