<svg width="59" height="17" viewBox="0 0 59 17" fill="none" xmlns="http://www.w3.org/2000/svg">
<path d="M12.8335 2.40038L10.655 9.94721H10.2823L8.1037 2.40038C7.73098 1.12332 6.56136 0.244141 5.22467 0.244141H0V16.6726H5.23109V6.96312H5.60384L8.59855 16.6726H12.3387L15.327 6.96312H15.6997V16.6726H20.9309V0.244141H15.7062C14.3759 0.244141 13.2063 1.12332 12.8335 2.40038ZM41.7973 16.6726H47.0606V11.8147H52.3561C55.1258 11.8147 57.4844 10.2488 58.3968 8.04767H41.7973V16.6726ZM32.4727 1.97683L28.7904 9.95364H28.4176V0.244141H23.1865V16.6726H27.6272C28.7968 16.6726 29.857 15.9924 30.3455 14.9399L34.0278 6.96955H34.4007V16.6726H39.6317V0.244141H35.191C34.0213 0.244141 32.9611 0.924382 32.4727 1.97683Z" fill="#929292"/>
<path fill-rule="evenodd" clip-rule="evenodd" d="M52.8761 0.244141C54.3863 0.244141 55.7551 0.821704 56.7898 1.77148C57.9465 2.82393 58.6727 4.33844 58.6727 6.0262C58.6727 6.37273 58.6342 6.71285 58.5763 7.04656H48.8596C45.5692 7.04656 42.7802 4.89032 41.8419 1.91266C41.8291 1.88057 41.8226 1.84207 41.8098 1.80356C41.7841 1.71372 41.7648 1.61746 41.7391 1.52762C41.6427 1.11048 41.5784 0.686938 41.5527 0.244141H52.8761Z" fill="#929292"/>
</svg>
