<svg width="45" height="16" viewBox="0 0 45 16" fill="none" xmlns="http://www.w3.org/2000/svg">
<path d="M22.2485 0.483502L19.2304 14.9649H15.5933L18.65 0.483502H22.2485ZM37.5709 9.81861L39.4669 4.39308L40.5503 9.8585H37.5709V9.81861ZM41.6337 14.9649H45L42.0593 0.483502H38.9639C38.2674 0.483502 37.687 0.882438 37.4162 1.56063L31.9604 14.9649H35.7911L36.5262 12.8106H41.1694L41.6337 14.9649ZM32.1539 10.2175C32.1926 6.38776 27.0077 6.18829 27.0464 4.47286C27.0464 3.95425 27.5107 3.39574 28.5942 3.27606C29.1359 3.19627 30.5675 3.15637 32.1926 3.91435L32.8117 0.882438C31.9218 0.523396 30.7997 0.244141 29.4067 0.244141C25.8083 0.244141 23.2932 2.19893 23.2545 5.03137C23.2158 7.10584 25.0731 8.30265 26.4273 8.98084C27.8203 9.69893 28.3233 10.1777 28.3233 10.7761C28.3233 11.7734 27.1625 12.1723 26.1565 12.2122C24.3379 12.2521 23.2545 11.6936 22.4033 11.2947L21.7455 14.4862C22.5967 14.8851 24.1445 15.2441 25.7696 15.2441C29.6389 15.2042 32.1152 13.2495 32.1539 10.2175ZM17.1023 0.483502L11.1823 14.9649H7.35168L4.41101 3.39574C4.25623 2.67765 4.10146 2.43829 3.59845 2.11914C2.70851 1.64042 1.27687 1.16169 0 0.882438L0.0773861 0.483502H6.26827C7.08083 0.483502 7.73861 1.04201 7.93207 1.95957L9.47979 10.3372L13.2717 0.483502H17.1023Z" fill="#929292"/>
</svg>
